<svg width="300" height="306" xmlns="http://www.w3.org/2000/svg">
  <rect width="300" height="306" rx="10" fill="#0D1117" stroke="#30363D" stroke-width="1"/>
  <text x="24" y="32" fill="#E6EDF3" font-size="16" font-weight="700"
        font-family="Segoe UI, Ubuntu, sans-serif">Top Languages</text>
  <line x1="24" y1="44" x2="276" y2="44" stroke="#30363D"/>
  <rect x="24" y="58" width="252" height="8" rx="4" fill="#30363D"/>
  <rect x="24.0" y="58" width="212.4" height="8" fill="#3572A5"/>
  <rect x="236.4" y="58" width="26.7" height="8" fill="#e34c26"/>
  <rect x="263.1" y="58" width="5.3" height="8" fill="#f1e05a"/>
  <rect x="268.4" y="58" width="2.8" height="8" fill="#f34b7d"/>
  <rect x="271.2" y="58" width="2.5" height="8" fill="#b07219"/>
  <rect x="273.7" y="58" width="1.3" height="8" fill="#663399"/>
  <rect x="275.0" y="58" width="1.0" height="8" fill="#012456"/>
  <rect x="276.0" y="58" width="1.0" height="8" fill="#701516"/>
  <circle cx="32" cy="82" r="5" fill="#3572A5"/><text x="44" y="86" fill="#8B949E" font-size="12" font-family="Segoe UI, Ubuntu, sans-serif">Python</text><text x="276" y="86" fill="#E6EDF3" font-size="12" font-weight="600" text-anchor="end" font-family="Segoe UI, Ubuntu, sans-serif">84.3%</text>
  <circle cx="32" cy="108" r="5" fill="#e34c26"/><text x="44" y="112" fill="#8B949E" font-size="12" font-family="Segoe UI, Ubuntu, sans-serif">HTML</text><text x="276" y="112" fill="#E6EDF3" font-size="12" font-weight="600" text-anchor="end" font-family="Segoe UI, Ubuntu, sans-serif">10.6%</text>
  <circle cx="32" cy="134" r="5" fill="#f1e05a"/><text x="44" y="138" fill="#8B949E" font-size="12" font-family="Segoe UI, Ubuntu, sans-serif">JavaScript</text><text x="276" y="138" fill="#E6EDF3" font-size="12" font-weight="600" text-anchor="end" font-family="Segoe UI, Ubuntu, sans-serif">2.1%</text>
  <circle cx="32" cy="160" r="5" fill="#f34b7d"/><text x="44" y="164" fill="#8B949E" font-size="12" font-family="Segoe UI, Ubuntu, sans-serif">C++</text><text x="276" y="164" fill="#E6EDF3" font-size="12" font-weight="600" text-anchor="end" font-family="Segoe UI, Ubuntu, sans-serif">1.1%</text>
  <circle cx="32" cy="186" r="5" fill="#b07219"/><text x="44" y="190" fill="#8B949E" font-size="12" font-family="Segoe UI, Ubuntu, sans-serif">Java</text><text x="276" y="190" fill="#E6EDF3" font-size="12" font-weight="600" text-anchor="end" font-family="Segoe UI, Ubuntu, sans-serif">1.0%</text>
  <circle cx="32" cy="212" r="5" fill="#663399"/><text x="44" y="216" fill="#8B949E" font-size="12" font-family="Segoe UI, Ubuntu, sans-serif">CSS</text><text x="276" y="216" fill="#E6EDF3" font-size="12" font-weight="600" text-anchor="end" font-family="Segoe UI, Ubuntu, sans-serif">0.5%</text>
  <circle cx="32" cy="238" r="5" fill="#012456"/><text x="44" y="242" fill="#8B949E" font-size="12" font-family="Segoe UI, Ubuntu, sans-serif">PowerShell</text><text x="276" y="242" fill="#E6EDF3" font-size="12" font-weight="600" text-anchor="end" font-family="Segoe UI, Ubuntu, sans-serif">0.2%</text>
  <circle cx="32" cy="264" r="5" fill="#701516"/><text x="44" y="268" fill="#8B949E" font-size="12" font-family="Segoe UI, Ubuntu, sans-serif">Ruby</text><text x="276" y="268" fill="#E6EDF3" font-size="12" font-weight="600" text-anchor="end" font-family="Segoe UI, Ubuntu, sans-serif">0.2%</text>
</svg>